<svg width="17" height="17" viewBox="0 0 17 17" fill="none" xmlns="http://www.w3.org/2000/svg">
<path d="M8.14051 2.25837L8.50298 2.63333L8.86235 2.25539L9.38173 1.70917C10.1823 0.915407 11.24 0.484778 12.3298 0.500412C13.4219 0.516077 14.4704 0.978767 15.2511 1.79872C16.0325 2.61948 16.4829 3.73327 16.4995 4.90472C16.5162 6.07618 16.0975 7.20403 15.3393 8.04943L15.3336 8.0558L15.3281 8.06236L9.4706 15.0612C8.9645 15.6659 8.03481 15.6662 7.5284 15.0617L1.67172 8.07121L1.6663 8.06474L1.66068 8.05847C0.902465 7.21307 0.48385 6.08522 0.500477 4.91376C0.517103 3.74231 0.967502 2.62852 1.74892 1.80776C2.52958 0.987807 3.57812 0.525117 4.67017 0.509451C5.76064 0.493809 6.81891 0.92496 7.6197 1.71963L8.14051 2.25837Z" stroke="white"/>
</svg>
